<svg id="Capa_1" enable-background="new 0 0 512 512" height="512" viewBox="0 0 512 512" width="512" xmlns="http://www.w3.org/2000/svg"><g><g><g><path d="m210.749 365.667v82.599l45.518 10 10-51.3-10-41.299z" fill="#ffb655"/><path d="m301.251 365.667h-44.984v92.599l44.984-10z" fill="#ff8859"/></g><g><path d="m118.192 448.266-10.622 63.734h148.697l10-31.867-10-31.867z" fill="#ffde55"/><path d="m394.375 448.266h-138.108v63.734h148.73z" fill="#ffb655"/></g><g><path d="m30.283 0c-16.569 0-30 13.431-30 30v278.301l255.983 10 10-152.634-9.999-165.667z" fill="#736e6e"/><path d="m511.717 30c0-16.569-13.431-30-30-30h-225.45v318.301l255.45-10z" fill="#464141"/></g><g><path d="m.283 308.301v45.419c0 16.569 13.431 30 30 30h225.983l10-37.709-10-37.709h-255.983z" fill="#ffde55"/><path d="m256.267 308.301v75.419h225.45c16.569 0 30-13.431 30-30v-45.419z" fill="#ffb655"/></g></g><g><path d="m255.963 234.51c-5.254-6.156-14.125-28.301-16.077-65.359h16.381l10-15-10-15h-16.381c1.952-37.061 10.823-59.205 16.078-65.359.099.116.202.249.303.376l10-16.635-10-14.878c-.101 0-.202-.004-.303-.004-61.481 0-111.5 50.019-111.5 111.5s50.019 111.5 111.5 111.5c.101 0 .202-.004.303-.004l10-14.781-10-16.732c-.102.127-.205.26-.304.376zm-80.092-65.36h33.978c.997 20.969 4.117 41.271 9.544 57.8-22.328-11.262-38.791-32.484-43.522-57.8zm33.977-30h-33.978c4.731-25.316 21.194-46.538 43.522-57.8-5.427 16.529-8.547 36.831-9.544 57.8z" fill="#ffde55"/><path d="m367.463 154.15c0-61.38-49.855-111.332-111.197-111.496v31.513c5.285 6.631 13.859 28.624 15.774 64.983h-15.774v30h15.774c-1.916 36.359-10.489 58.353-15.774 64.983v31.513c61.343-.164 111.197-50.115 111.197-111.496zm-31.407-15h-33.978c-.997-20.969-4.117-41.271-9.544-57.8 22.328 11.262 38.791 32.484 43.522 57.8zm-43.522 87.801c5.428-16.529 8.547-36.831 9.544-57.8h33.978c-4.731 25.315-21.194 46.537-43.522 57.8z" fill="#ffb655"/></g></g></svg>