<svg id="Layer_1" height="512" viewBox="0 0 150 150" width="512" xmlns="http://www.w3.org/2000/svg" data-name="Layer 1"><circle cx="75" cy="75" fill="#fcd462" r="64"/><rect fill="#3a556a" height="73.49" rx="4.29" width="46.49" x="41.82" y="38.26"/><path d="m45.34 49.75h39.45v50.5h-39.45z" fill="#27a2db"/><path d="m71.89 43.55h-12a1 1 0 0 0 0 1.9h12a1 1 0 1 0 0-1.9z" fill="#2f4859"/><path d="m65.19 103.13a2.88 2.88 0 1 0 2.88 2.87 2.88 2.88 0 0 0 -2.88-2.87z" fill="#2f4859"/><path d="m62.73 66.43c-.37-.09-.5.11-.85.25s-.75 0-1.18-.07c-.25 0-.43-.12-.68-.18a4.25 4.25 0 0 0 -.8 0 4.56 4.56 0 0 0 -2 .15 1.74 1.74 0 0 1 -.93.13c-.42 0-.44.11-.76.39a.52.52 0 0 1 -.52.17c-.12 0-.15-.22-.33-.22s-.54.43-.71.6c-.35-.12-.3-.47-.74-.33a1.59 1.59 0 0 0 -.45.27 4.92 4.92 0 0 1 -.56.37c-.26.17-.36.32-.73.27a4.51 4.51 0 0 0 -.53-.1h-.58a17 17 0 0 1 -1.76-.07 1 1 0 0 0 -.86.21c-.08.09-.11.21-.21.29a2.44 2.44 0 0 1 -.44.19c-.37.2-.49.57-.92.67-.19 0-.47 0-.44.27s.44.25.61.25.24-.1.4-.18a2.82 2.82 0 0 1 .41-.09c.25-.08.19-.17.36-.25.37-.19.6 0 .82.31a1.49 1.49 0 0 1 .24.83 3.86 3.86 0 0 1 0 .68c-.05.26-.28.3-.39.54s0 .57 0 .85-.11.21-.08.35.18.3.23.45c.13.34.07.69.41.94.1.08.27.09.34.21s0 .32 0 .45a.85.85 0 0 0 .11.35 3 3 0 0 0 .19.46c.13.19.22.13.42.15.37 0 .74.12 1.11.15.14.17 0 .46.08.66s.14.16.26.23a1.94 1.94 0 0 1 .79.49c.11.14.16.36.33.43h.3c.22.13 0 .55-.11.66s-.13.33-.14.55a1.93 1.93 0 0 0 0 .48 1.79 1.79 0 0 0 .19.42c.08.16.13.33.2.49a2.33 2.33 0 0 0 .69.94c.16.1.26.1.37.29a1.14 1.14 0 0 1 .11.71v.51c0 .3.16.39.26.65s-.12.73-.09 1.12a5.12 5.12 0 0 0 .31 1.08c.07.18.08.37.15.56a3.52 3.52 0 0 0 .28.59 1.86 1.86 0 0 0 .83.88c.12 0 .44.12.53 0v-.58.14c-.24-.22-.55-.36-.6-.7s0-.53 0-.8a2.7 2.7 0 0 1 0-.75c.08-.3.45-.42.63-.67s.16-.18.25-.29.12-.28.21-.39.23-.15.28-.33 0-.32 0-.47.12-.24.16-.38a.47.47 0 0 1 .29-.41c.39-.23.67-.25.79-.72 0-.15.06-.3.1-.45s.16-.29.23-.48a2.3 2.3 0 0 0 .08-.91 1 1 0 0 0 -.64-.56 4.89 4.89 0 0 1 -.53-.09c-.17-.07-.19-.17-.34-.25s-.29 0-.4-.17a2.25 2.25 0 0 1 -.15-.46c-.08-.25-.06-.23-.29-.32a2.12 2.12 0 0 1 -.31-.14 2.59 2.59 0 0 1 -.33-.17 3 3 0 0 0 -.55-.21l-.33-.15a1.53 1.53 0 0 0 -.56-.13 2.73 2.73 0 0 0 -1-.06c-.24.08-.05.14-.19.31a.85.85 0 0 1 -.61 0l-.28-.41c0-.15.16-.27.09-.42s-.75 0-.89-.29c.15-.16.49-.33.37-.6s-.45-.18-.57 0 0 .18-.17.26h-.37a.54.54 0 0 1 -.46-.48.77.77 0 0 1 0-.37c.07-.21.11-.12.26-.25s.14-.34.28-.47a1.35 1.35 0 0 1 .7-.18c.35 0 .66-.08.88.19s.34.59.78.55v-.24c-.22-.12 0-.63.11-.76a1.11 1.11 0 0 0 .34-.38 1 1 0 0 1 .27-.48 4.83 4.83 0 0 0 .42-.37l.2-.31c.11-.1.3-.06.46-.06.62 0 .11-.55.62-.66.18 0 .32.12.47.08s.07-.29 0-.44c-.07-.34 0-.16.23-.22s.27-.28.5-.2 0 .83.54.65-.19-.47-.21-.68.11-.2.13-.29a.42.42 0 0 0 -.08-.31l-.08-.15-.07-.27c0-.16-.17-.54-.36-.48s-.15.44-.28.56c-.33-.15.08-1-.52-.82-.28.09-.19.31-.35.52l-.25.2v.33c0 .1-.11.14-.15.23a1.87 1.87 0 0 0 -.08.32c-.12.36-.53.71-.61.15a1.15 1.15 0 0 1 0-.32l.1-.27c-.07-.22-.27 0-.43-.06s-.14-.16-.24-.28-.18-.16-.22-.28c-.21-.49.28-.37.6-.42l.19-.1h.26.35c.14 0 .16-.18.24-.29s.09-.14.32-.23.3-.27.48-.41c.35-.28.35.07.4.34s.09.58.25.69a.38.38 0 0 0 .52-.19l.09-.28.23-.1c.23-.23-.09-.3-.24-.51s0-.19-.1-.29-.23-.15-.28-.31a.52.52 0 0 1 .18-.46c.18-.18.25-.14.52-.17a.52.52 0 0 1 .39 0c.16.08.17.26.3.34s.42.13.55.27a1 1 0 0 1 .24.65c-.05.2-.22.2-.3.34a1.07 1.07 0 0 0 0 .71.39.39 0 0 0 .58.26c.09-.06.17-.28.25-.36s.41-.23.65-.36a4.52 4.52 0 0 0 .47-.37c.3-.21.69-.25.95-.45.1-.07.19-.18.29-.26s.22-.07.43-.15.26-.53.5-.72c.08-.06.24 0 .27-.16s-.26-.07-.39-.11z" fill="#ebf0f3"/><path d="m66.84 84.16c.52 0 .48 0 .64-.43.06-.14.14-.47.2-.58s.21-.24.39-.43.23-.62.43-.92a6.22 6.22 0 0 0 .64-.94c.33-.76-.24-1.44.19-2.21.3-.54 1.63-1 1.33-1.75-.44 0-.77.25-.89-.27s0-.77.53-.78 1 .14 1.38-.23.16-.73.24-1.12c.25.15.22.35.4.52a1.8 1.8 0 0 0 .88.5c.32 0 .41-.12.67.17s.15.28.16.58a1.25 1.25 0 0 0 .29 1c.09.09.33.29.48.23s-.16-1-.21-1.2c.37-.22.76-.14 1-.41s.12-.71.61-.54.19.66.34 1 .62.55.61 1c0 .21-.28.47-.24.68s.15.19.35.35.45.67.8.92.52.37.8.53.69.07 1.06.23a6.23 6.23 0 0 0 .86.41c.29.08.33-.24.38.23s-.43.53-.67.69-.54.47-.87.63-.55.28-.59.71c-.08.78.18 1.73 1.19 1.47.36-.1.52-.68 1-.37.2.14.21.41.33.59a1 1 0 0 0 .79.46c.28.06.81.28 1 0s0-.38.13-.54.45-.44.59-.67.23-.28.23-.53c0-.56-.54-1-.57-1.57s.11-1.2-.5-1.32c0 .41.5 1.56-.33 1.56-.42 0-.59-.73-.62-1.08s.14-.58-.29-.67c-.23 0-.41.1-.6.09a1.67 1.67 0 0 1 -1.14-.47c-.39-.53.3-.41.64-.5.15 0 .14-.18.38-.16s.5.27.71.39a3 3 0 0 0 1.54.54c.13 0 .67.07.77 0 .25-.29-.26-.41-.41-.45-.41-.11-.7 0-1-.42s-.08-.42-.47-.54-.28 0-.45-.18l-.01-.36c-.11-.11-.27 0-.38-.11a.87.87 0 0 1 -.4-.5c-.07-.18-.09-.37-.16-.57-.17-.41-.48-.83-1-.62s-.32.74-.4 1.09 0 .36-.18.51c-.33.29-.66-.15-.7-.45s.11-.74.08-1.11c0-.21-.16-.5-.08-.72.15-.38.46-.18.77-.33a.78.78 0 0 0 .42-1.17c-.18-.34-.78-.82-.37-1.26s.86.45 1.14.63 1.41.19 1.18-.59c-.38 0-.84.08-1.15-.2a1.68 1.68 0 0 1 .34-1.41c.16-.21.29-.23.1-.48s-1-.09-1.39-.33a.53.53 0 0 1 -.18-.62c.23-.46.63 0 1 0 .2 0 .36-.36.62-.41s.42.1.64 0c.19.3-.06.77.16 1a3.06 3.06 0 0 0 .82.51.62.62 0 0 0 .16-.39.58.58 0 0 1 -.22-.77c.21-.38.84-.4.52-.95s-1.42-.63-1.92-.89a1.72 1.72 0 0 0 -.94-.19c-.31 0-.61.2-.86.2s-.29-.13-.44-.15-.39.06-.57 0-.23-.22-.4-.25a2.35 2.35 0 0 0 -.59 0 9.73 9.73 0 0 1 -2.23.11c-.47-.08-.55-.36-1-.38a5.3 5.3 0 0 0 -1.32.08 10.07 10.07 0 0 0 -1 .33 4.9 4.9 0 0 1 -1.33.26 4 4 0 0 0 -1.4.36 1 1 0 0 1 -1.07.06c-.14-.06-.26-.27-.37-.32a3.25 3.25 0 0 0 -1.12.03 1.68 1.68 0 0 0 -1 .22c-.26.14-.24.23-.39.43s-.41.48-.6.73c-.3.41-.12.58-.17 1-.11 1-.77-.36-1-.39-1.18-.11-.08 1.68-.12 2s-.51.41-.76.65a1 1 0 0 0 -.33.8.91.91 0 0 1 -.35.81 1.35 1.35 0 0 0 -.48.61 3.16 3.16 0 0 0 0 1.9c.2.58.8 1.45 1.45 1.36.43-.06.87-.36 1.36-.27.67.15.67.61.67 1.15s.41.47.41.8c0 .17-.18.34-.21.51s.05.27.09.45a3.55 3.55 0 0 0 .12.65c.08.16.32.27.38.41a2.22 2.22 0 0 1 0 .89c0 .19-.14.28-.1.47s.29.36.41.52.68 1.09.74.46z" fill="#ebf0f3"/><path d="m94.16 44.67a14 14 0 1 0 14 14 14 14 0 0 0 -14-14z" fill="#e56353"/><path d="m84.25 65.32-5.3 13.24 10.38-9.61z" fill="#e56353"/><path d="m100.89 51.36h-4.44l-2.24 1.23-2.34-1.23h-4.44a.66.66 0 0 0 -.66.65v12.66a.66.66 0 0 0 .66.65h13.46a.65.65 0 0 0 .65-.65v-12.67a.65.65 0 0 0 -.65-.64z" fill="#fcd462"/><path d="m96.45 55.13-.55-.39-.6.39-.53-.39-.61.39-.59-.39-.6.39-.61-.39-.5.39v-3.77h4.59z" fill="#ebf0f3"/><g fill="#3a556a"><path d="m89.42 61.59-.73-1.03-.74 1.03h.42v2.52h.64v-2.52z"/><path d="m91.15 61.59-.73-1.03-.74 1.03h.42v2.52h.64v-2.52z"/><path d="m93.62 61.68v-1.12h-.62l-.35.48.36.31-.49.69.22-.53-.45-.45.33-.5h-.81v1.12a.93.93 0 0 0 .8.92v.85a.45.45 0 0 1 -.46.46h-.15l-.1.1.1.1h1.39l.1-.1-.1-.1h-.11a.46.46 0 0 1 -.46-.46v-.85a.93.93 0 0 0 .8-.92z"/><path d="m95.94 60.78v-.15l-.07-.07-.07.07v.15a1.79 1.79 0 0 0 -1.72 1.78s.11-.07.23-.07.24 0 .24.07.14-.09.32-.09a.55.55 0 0 1 .33.07c0-.09.29-.16.6-.17v1.42a.19.19 0 0 1 -.38 0v-.2l-.07-.07-.07.07v.2a.33.33 0 0 0 .66 0v-1.43c.34 0 .6.1.6.2 0-.05.15-.09.33-.09s.32 0 .32.09.11-.07.24-.07.23 0 .23.07a1.79 1.79 0 0 0 -1.72-1.78z"/></g></svg>